<svg width="20" height="20" viewBox="0 0 20 20" fill="none" xmlns="http://www.w3.org/2000/svg">
<path d="M9.99982 3.00778L16.4647 6.24997L9.99982 9.49215L3.53498 6.24997L9.99982 3.00778ZM9.62873 1.34762L1.28888 5.50778C1.08055 5.61195 0.940574 5.77145 0.86896 5.98629C0.797345 6.20114 0.813621 6.41273 0.917788 6.62106C0.95685 6.71221 1.00893 6.78708 1.07404 6.84567C1.13914 6.90426 1.21076 6.95309 1.28888 6.99215L9.62873 11.1523C9.74591 11.2174 9.86961 11.25 9.99982 11.25C10.13 11.25 10.2537 11.2174 10.3709 11.1523L18.7108 6.99215C18.9191 6.88799 19.0591 6.72848 19.1307 6.51364C19.2023 6.29879 19.186 6.08721 19.0819 5.87887C19.0428 5.78773 18.9907 5.71286 18.9256 5.65426C18.8605 5.59567 18.7889 5.54684 18.7108 5.50778L10.3709 1.32809C10.2537 1.27601 10.13 1.24997 9.99982 1.24997C9.86961 1.24997 9.74591 1.27601 9.62873 1.32809V1.34762ZM1.28888 15.332L9.62873 19.4922C9.74591 19.5573 9.86961 19.5866 9.99982 19.58C10.13 19.5735 10.2537 19.5442 10.3709 19.4922L18.7108 15.332C18.9191 15.2278 19.0591 15.0651 19.1307 14.8437C19.2023 14.6224 19.186 14.414 19.0819 14.2187C18.9777 14.0104 18.8149 13.8704 18.5936 13.7988C18.3722 13.7272 18.1639 13.7369 17.9686 13.8281L9.99982 17.8125L2.03107 13.8476C1.83576 13.7435 1.62742 13.7272 1.40607 13.7988C1.18472 13.8704 1.02195 14.0104 0.917788 14.2187C0.813621 14.414 0.797345 14.6224 0.86896 14.8437C0.940574 15.0651 1.08055 15.2278 1.28888 15.332ZM1.28888 11.1523L9.62873 15.332C9.74591 15.3841 9.86961 15.4101 9.99982 15.4101C10.13 15.4101 10.2537 15.3841 10.3709 15.332L18.7108 11.1523C18.9191 11.0612 19.0591 10.9049 19.1307 10.6836C19.2023 10.4622 19.186 10.2474 19.0819 10.039C18.9777 9.8307 18.8149 9.69072 18.5936 9.61911C18.3722 9.54749 18.1639 9.56377 17.9686 9.66794L9.99982 13.6523L2.03107 9.66794C1.83576 9.56377 1.62742 9.54749 1.40607 9.61911C1.18472 9.69072 1.02195 9.8307 0.917788 10.039C0.813621 10.2474 0.797345 10.4622 0.86896 10.6836C0.940574 10.9049 1.08055 11.0677 1.28888 11.1718V11.1523Z" fill="#111111"/>
</svg>
