<svg width="21" height="21" viewBox="0 0 21 21" fill="none" xmlns="http://www.w3.org/2000/svg">
<path d="M18.7695 13.7834V5.46313C18.7695 5.11157 18.7044 4.7828 18.5742 4.47681C18.444 4.17082 18.2617 3.90715 18.0273 3.68579C17.806 3.46444 17.5423 3.28866 17.2363 3.15845C16.9303 3.02824 16.6081 2.96313 16.2695 2.96313H4.58984C4.2513 2.96313 3.92904 3.02824 3.62305 3.15845C3.31706 3.28866 3.05339 3.46444 2.83203 3.68579C2.61068 3.92017 2.43164 4.18709 2.29492 4.48657C2.1582 4.78605 2.08984 5.11157 2.08984 5.46313V18.7834C2.08984 18.9006 2.11263 19.0081 2.1582 19.1057C2.20378 19.2034 2.26562 19.2913 2.34375 19.3694C2.5 19.5387 2.69531 19.6233 2.92969 19.6233C3.16406 19.6233 3.35938 19.5387 3.51562 19.3694L6.60156 16.2834H16.2695C16.6081 16.2834 16.9303 16.2183 17.2363 16.0881C17.5423 15.9579 17.806 15.7821 18.0273 15.5608C18.2487 15.3264 18.4277 15.0595 18.5645 14.76C18.7012 14.4605 18.7695 14.135 18.7695 13.7834ZM17.0898 13.7834C17.0898 13.9006 17.0703 14.0113 17.0312 14.1155C16.9922 14.2196 16.9336 14.3043 16.8555 14.3694C16.7773 14.4475 16.6862 14.5094 16.582 14.5549C16.4779 14.6005 16.3737 14.6233 16.2695 14.6233H6.26953C6.15234 14.6233 6.04167 14.6461 5.9375 14.6917C5.83333 14.7372 5.7487 14.7991 5.68359 14.8772L3.76953 16.7717V5.46313C3.76953 5.34595 3.78906 5.23527 3.82812 5.1311C3.86719 5.02694 3.92578 4.9423 4.00391 4.8772C4.08203 4.79907 4.17318 4.73722 4.27734 4.69165C4.38151 4.64608 4.48568 4.62329 4.58984 4.62329H16.2695C16.3737 4.62329 16.4779 4.64608 16.582 4.69165C16.6862 4.73722 16.7773 4.79907 16.8555 4.8772C16.9336 4.9423 16.9922 5.02694 17.0312 5.1311C17.0703 5.23527 17.0898 5.34595 17.0898 5.46313V13.7834Z" fill="#111111"/>
</svg>
