<svg width="20" height="20" viewBox="0 0 20 20" fill="none" xmlns="http://www.w3.org/2000/svg">
<path d="M2.83984 3.75V3.25H3.33984H7.5H8V3.75V7.91016V8.41016H7.5H3.33984H2.83984V7.91016V3.75ZM12 3.75V3.25H12.5H16.6602H17.1602V3.75V7.91016V8.41016H16.6602H12.5H12V7.91016V3.75ZM12 12.9102V12.4102H12.5H16.6602H17.1602V12.9102V17.0898V17.5898H16.6602H12.5H12V17.0898V12.9102ZM2.83984 12.9102V12.4102H3.33984H7.5H8V12.9102V17.0898V17.5898H7.5H3.33984H2.83984V17.0898V12.9102ZM2.5 2.58984C2.39552 2.58984 2.32494 2.62045 2.25785 2.68754C2.18469 2.7607 2.16016 2.82719 2.16016 2.91016V8.75C2.16016 8.85448 2.19076 8.92506 2.25785 8.99215C2.32494 9.05924 2.39552 9.08984 2.5 9.08984H8.33984C8.42281 9.08984 8.4893 9.06531 8.56246 8.99215C8.62955 8.92506 8.66016 8.85448 8.66016 8.75V2.91016C8.66016 2.82719 8.63562 2.7607 8.56246 2.68754C8.4893 2.61438 8.42281 2.58984 8.33984 2.58984H2.5ZM11.6602 2.58984C11.5772 2.58984 11.5107 2.61438 11.4375 2.68754C11.3644 2.7607 11.3398 2.82719 11.3398 2.91016V8.75C11.3398 8.85448 11.3704 8.92506 11.4375 8.99215C11.5107 9.06531 11.5772 9.08984 11.6602 9.08984H17.5C17.6045 9.08984 17.6751 9.05924 17.7421 8.99215C17.8092 8.92506 17.8398 8.85448 17.8398 8.75V2.91016C17.8398 2.82719 17.8153 2.7607 17.7421 2.68754C17.6751 2.62045 17.6045 2.58984 17.5 2.58984H11.6602ZM11.6602 11.75C11.5772 11.75 11.5107 11.7745 11.4375 11.8477C11.3704 11.9148 11.3398 11.9854 11.3398 12.0898V17.9102C11.3398 18.0146 11.3704 18.0852 11.4375 18.1523C11.5107 18.2255 11.5772 18.25 11.6602 18.25H17.5C17.6045 18.25 17.6751 18.2194 17.7421 18.1523C17.8092 18.0852 17.8398 18.0146 17.8398 17.9102V12.0898C17.8398 11.9854 17.8092 11.9148 17.7421 11.8477C17.6751 11.7806 17.6045 11.75 17.5 11.75H11.6602ZM2.5 11.75C2.39552 11.75 2.32494 11.7806 2.25785 11.8477C2.19076 11.9148 2.16016 11.9854 2.16016 12.0898V17.9102C2.16016 18.0146 2.19076 18.0852 2.25785 18.1523C2.32494 18.2194 2.39552 18.25 2.5 18.25H8.33984C8.42281 18.25 8.4893 18.2255 8.56246 18.1523C8.62955 18.0852 8.66016 18.0146 8.66016 17.9102V12.0898C8.66016 11.9854 8.62955 11.9148 8.56246 11.8477C8.4893 11.7745 8.42281 11.75 8.33984 11.75H2.5Z" fill="#2275FC" stroke="black"/>
</svg>
