<svg width="22" height="22" viewBox="0 0 22 22" fill="none" xmlns="http://www.w3.org/2000/svg">
<g clip-path="url(#clip0_23_96)">
<path d="M15.7979 6.68579H18.9355L12.7422 12.8792L8.98926 9.12622C8.81152 8.96216 8.60303 8.88013 8.36377 8.88013C8.12451 8.88013 7.92285 8.96216 7.75879 9.12622L1.19629 15.6887C1.01855 15.8665 0.929688 16.075 0.929688 16.3142C0.929688 16.5535 1.01855 16.7551 1.19629 16.9192C1.36035 17.0969 1.56201 17.1858 1.80127 17.1858C2.04053 17.1858 2.24902 17.0969 2.42676 16.9192L8.37402 10.9924L12.127 14.7454C12.291 14.9094 12.4961 14.9915 12.7422 14.9915C12.9883 14.9915 13.1934 14.9094 13.3574 14.7454L20.1865 7.91626V11.054C20.1865 11.3 20.272 11.5085 20.4429 11.6794C20.6138 11.8503 20.8154 11.9358 21.0479 11.9358C21.2939 11.9358 21.5024 11.8503 21.6733 11.6794C21.8442 11.5085 21.9297 11.3 21.9297 11.054V5.80396C21.9297 5.74927 21.9229 5.69458 21.9092 5.63989C21.8955 5.58521 21.8818 5.53052 21.8682 5.47583C21.8408 5.42114 21.8135 5.36987 21.7861 5.32202C21.7588 5.27417 21.7246 5.22974 21.6836 5.18872C21.6836 5.18872 21.6802 5.18872 21.6733 5.18872C21.6665 5.18872 21.6631 5.18872 21.6631 5.18872C21.6357 5.14771 21.5981 5.11353 21.5503 5.08618C21.5024 5.05884 21.4512 5.03149 21.3965 5.00415C21.3418 4.97681 21.2871 4.95972 21.2324 4.95288C21.1777 4.94604 21.1162 4.94263 21.0479 4.94263H15.7979C15.5654 4.94263 15.3638 5.02808 15.1929 5.19897C15.022 5.36987 14.9365 5.57153 14.9365 5.80396C14.9365 6.05005 15.022 6.25854 15.1929 6.42944C15.3638 6.60034 15.5654 6.68579 15.7979 6.68579Z" fill="#22C55E"/>
</g>
<defs>
<clipPath id="clip0_23_96">
<rect width="21" height="21" fill="white" transform="matrix(1 0 0 -1 0.929688 21.1233)"/>
</clipPath>
</defs>
</svg>
