<svg width="21" height="21" viewBox="0 0 21 21" fill="none" xmlns="http://www.w3.org/2000/svg">
<g clip-path="url(#clip0_23_1501)">
<path d="M14.5897 7.96313C14.5897 8.79647 14.6353 9.55168 14.7264 10.2288C14.8176 10.9189 14.938 11.5374 15.0877 12.0842C15.2375 12.6311 15.4035 13.1129 15.5858 13.5295C15.7681 13.9462 15.9504 14.3108 16.1327 14.6233H4.72641C4.9087 14.3108 5.091 13.9462 5.27329 13.5295C5.45558 13.1129 5.62159 12.6311 5.77133 12.0842C5.92107 11.5374 6.04152 10.9189 6.13266 10.2288C6.22381 9.55168 6.26938 8.79647 6.26938 7.96313C6.26938 7.3772 6.3768 6.83358 6.59165 6.33227C6.80649 5.83097 7.10271 5.39152 7.48032 5.01392C7.85792 4.63631 8.30063 4.33683 8.80844 4.11548C9.31626 3.89412 9.85662 3.78345 10.4295 3.78345C11.0025 3.78345 11.5428 3.89412 12.0506 4.11548C12.5584 4.33683 13.0012 4.63631 13.3788 5.01392C13.7564 5.39152 14.0526 5.83097 14.2674 6.33227C14.4823 6.83358 14.5897 7.3772 14.5897 7.96313ZM16.2694 7.96313C16.2694 7.15584 16.1164 6.39738 15.8104 5.68774C15.5044 4.97811 15.0845 4.35636 14.5506 3.82251C14.0298 3.30168 13.4146 2.88826 12.7049 2.58227C11.9953 2.27629 11.2368 2.12329 10.4295 2.12329C9.62225 2.12329 8.86378 2.27629 8.15415 2.58227C7.44451 2.88826 6.82928 3.30168 6.30844 3.82251C5.77459 4.35636 5.35467 4.97811 5.04868 5.68774C4.74269 6.39738 4.58969 7.15584 4.58969 7.96313C4.58969 9.23918 4.48553 10.3069 4.27719 11.1663C4.06886 12.0256 3.83774 12.7157 3.58383 13.2366C3.32993 13.7574 3.08579 14.135 2.85141 14.3694C2.63006 14.6038 2.49985 14.734 2.46079 14.76C2.26547 14.8902 2.14829 15.0693 2.10922 15.2971C2.07016 15.525 2.11574 15.7301 2.24594 15.9124C2.32407 16.0426 2.42498 16.137 2.54868 16.1956C2.67238 16.2542 2.79933 16.2834 2.92954 16.2834H17.9295C18.1639 16.2834 18.3625 16.2021 18.5252 16.0393C18.688 15.8765 18.7694 15.6845 18.7694 15.4631C18.7694 15.3199 18.7368 15.1864 18.6717 15.0627C18.6066 14.939 18.5155 14.8446 18.3983 14.7795C18.3722 14.7535 18.242 14.6233 18.0077 14.3889C17.7863 14.1545 17.5454 13.7737 17.285 13.2463C17.0246 12.719 16.7902 12.0256 16.5819 11.1663C16.3735 10.3069 16.2694 9.23918 16.2694 7.96313ZM11.1522 18.3733C11.0871 18.4775 11.0122 18.5621 10.9276 18.6272C10.8429 18.6923 10.7485 18.7379 10.6444 18.7639C10.5402 18.79 10.4328 18.7965 10.3221 18.7834C10.2114 18.7704 10.1105 18.7314 10.0194 18.6663C9.94126 18.6272 9.87941 18.5849 9.83383 18.5393C9.78826 18.4937 9.74594 18.4384 9.70688 18.3733C9.58969 18.178 9.42042 18.051 9.19907 17.9924C8.97771 17.9338 8.76938 17.9566 8.57407 18.0608C8.37876 18.178 8.24855 18.3472 8.18344 18.5686C8.11834 18.79 8.14438 18.9983 8.26157 19.1936C8.36574 19.3889 8.49594 19.5647 8.65219 19.7209C8.80844 19.8772 8.98423 20.0074 9.17954 20.1116C9.47902 20.2939 9.79152 20.4045 10.117 20.4436C10.4426 20.4827 10.7616 20.4566 11.0741 20.3655C11.3866 20.2874 11.673 20.1506 11.9334 19.9553C12.1939 19.76 12.4152 19.5126 12.5975 19.2131C12.7147 19.0048 12.7407 18.79 12.6756 18.5686C12.6105 18.3472 12.4803 18.178 12.285 18.0608C12.0897 17.9566 11.8814 17.9338 11.66 17.9924C11.4387 18.051 11.2694 18.178 11.1522 18.3733Z" fill="#111111"/>
</g>
<defs>
<clipPath id="clip0_23_1501">
<rect width="20" height="20" fill="white" transform="matrix(1 0 0 -1 0.429688 20.8733)"/>
</clipPath>
</defs>
</svg>
