<svg width="53" height="53" viewBox="0 0 53 53" fill="none" xmlns="http://www.w3.org/2000/svg">
<path d="M21.539 2.75271C24.633 0.966381 28.445 0.966381 31.539 2.75271L44.9217 10.4792C48.0157 12.2656 49.9217 15.5668 49.9217 19.1395V34.5925C49.9217 38.1651 48.0157 41.4664 44.9217 43.2527L31.539 50.9792C28.445 52.7656 24.633 52.7656 21.539 50.9792L8.15625 43.2527C5.06224 41.4664 3.15625 38.1651 3.15625 34.5925V19.1395C3.15625 15.5668 5.06224 12.2656 8.15625 10.4792L21.539 2.75271Z" fill="#CBD5E1"/>
<g clip-path="url(#clip0_23_208)">
<path d="M31.543 23.4221H28.2559V20.135L31.543 23.4221ZM34.4004 23.6799L27.998 17.2776C27.9551 17.2346 27.9085 17.1952 27.8584 17.1594C27.8083 17.1236 27.7546 17.0914 27.6973 17.0627C27.64 17.0484 27.5827 17.0341 27.5254 17.0198C27.4681 17.0055 27.4108 16.9983 27.3535 16.9983H20.9297C20.5573 16.9983 20.2028 17.0699 19.8662 17.2131C19.5296 17.3564 19.2396 17.5569 18.9961 17.8147C18.7383 18.0582 18.5378 18.3482 18.3945 18.6848C18.2513 19.0214 18.1797 19.3759 18.1797 19.7483V34.4221C18.1797 34.7945 18.2513 35.149 18.3945 35.4856C18.5378 35.8222 18.7383 36.1122 18.9961 36.3557C19.2396 36.5992 19.5296 36.7961 19.8662 36.9465C20.2028 37.0969 20.5573 37.1721 20.9297 37.1721H31.9297C32.3021 37.1721 32.6566 37.1005 32.9932 36.9573C33.3298 36.814 33.6198 36.6135 33.8633 36.3557C34.1211 36.1122 34.3216 35.8222 34.4648 35.4856C34.6081 35.149 34.6797 34.7945 34.6797 34.4221V24.3245C34.6797 24.2099 34.6546 24.0953 34.6045 23.9807C34.5544 23.8661 34.4863 23.7659 34.4004 23.6799ZM26.4297 18.8245V24.3245C26.4297 24.5823 26.5192 24.8007 26.6982 24.9797C26.8773 25.1588 27.0957 25.2483 27.3535 25.2483H32.8535V34.4221C32.8535 34.5367 32.8285 34.6513 32.7783 34.7659C32.7282 34.8805 32.6602 34.9807 32.5742 35.0667C32.4883 35.1526 32.3916 35.217 32.2842 35.26C32.1768 35.303 32.0586 35.3245 31.9297 35.3245H20.9297C20.8008 35.3245 20.6826 35.303 20.5752 35.26C20.4678 35.217 20.3711 35.1526 20.2852 35.0667C20.1992 34.9807 20.1312 34.8805 20.0811 34.7659C20.0309 34.6513 20.0059 34.5367 20.0059 34.4221V19.7483C20.0059 19.6194 20.0309 19.5012 20.0811 19.3938C20.1312 19.2864 20.1992 19.1897 20.2852 19.1038C20.3711 19.0178 20.4678 18.9498 20.5752 18.8997C20.6826 18.8495 20.8008 18.8245 20.9297 18.8245H26.4297Z" fill="white"/>
</g>
<defs>
<clipPath id="clip0_23_208">
<rect width="22" height="22" fill="white" transform="matrix(1 0 0 -1 15.4297 37.6233)"/>
</clipPath>
</defs>
</svg>
