<svg width="25" height="26" viewBox="0 0 25 26" fill="none" xmlns="http://www.w3.org/2000/svg">
<g clip-path="url(#clip0_23_1494)">
<path d="M16.4375 13.8655C16.4375 13.3186 16.332 12.803 16.1211 12.3186C15.9102 11.8342 15.625 11.4124 15.2656 11.053C14.9063 10.6936 14.4805 10.4084 13.9883 10.1975C13.4961 9.98657 12.9766 9.8811 12.4297 9.8811C11.8828 9.8811 11.3633 9.98657 10.8711 10.1975C10.3789 10.4084 9.95312 10.6936 9.59375 11.053C9.23438 11.4124 8.94922 11.8342 8.73828 12.3186C8.52734 12.803 8.42188 13.3186 8.42188 13.8655C8.42188 14.428 8.52734 14.9514 8.73828 15.4358C8.94922 15.9202 9.23438 16.342 9.59375 16.7014C9.95312 17.0608 10.3789 17.3459 10.8711 17.5569C11.3633 17.7678 11.8828 17.8733 12.4297 17.8733C12.9766 17.8733 13.4961 17.7678 13.9883 17.5569C14.4805 17.3459 14.9063 17.0608 15.2656 16.7014C15.625 16.342 15.9102 15.9202 16.1211 15.4358C16.332 14.9514 16.4375 14.428 16.4375 13.8655ZM14.4219 13.8655C14.4219 14.1467 14.3711 14.4084 14.2695 14.6506C14.168 14.8928 14.0234 15.1077 13.8359 15.2952C13.6641 15.467 13.457 15.6077 13.2148 15.717C12.9727 15.8264 12.7109 15.8811 12.4297 15.8811C12.1484 15.8811 11.8867 15.8264 11.6445 15.717C11.4023 15.6077 11.1953 15.467 11.0234 15.2952C10.8359 15.1077 10.6914 14.8928 10.5898 14.6506C10.4883 14.4084 10.4375 14.1467 10.4375 13.8655C10.4375 13.5999 10.4883 13.3459 10.5898 13.1038C10.6914 12.8616 10.8359 12.6467 11.0234 12.4592C11.1953 12.2717 11.4023 12.1272 11.6445 12.0256C11.8867 11.9241 12.1484 11.8733 12.4297 11.8733C12.7109 11.8733 12.9727 11.9241 13.2148 12.0256C13.457 12.1272 13.6641 12.2717 13.8359 12.4592C14.0234 12.6467 14.168 12.8616 14.2695 13.1038C14.3711 13.3459 14.4219 13.5999 14.4219 13.8655ZM20.75 17.2874C20.7656 17.2249 20.7891 17.1741 20.8203 17.135C20.8516 17.0959 20.8906 17.0608 20.9375 17.0295C21 16.9827 21.0625 16.9436 21.125 16.9124C21.1875 16.8811 21.2578 16.8655 21.3359 16.8655H21.4297C21.8359 16.8655 22.2227 16.7874 22.5898 16.6311C22.957 16.4749 23.2734 16.2639 23.5391 15.9983C23.8203 15.717 24.0391 15.3967 24.1953 15.0374C24.3516 14.678 24.4297 14.2874 24.4297 13.8655C24.4297 13.4592 24.3516 13.0725 24.1953 12.7053C24.0391 12.3381 23.8203 12.0217 23.5391 11.7561C23.2734 11.4905 22.957 11.2756 22.5898 11.1116C22.2227 10.9475 21.8359 10.8655 21.4297 10.8655H21.2656C21.2188 10.8655 21.168 10.8616 21.1133 10.8538C21.0586 10.8459 21.0078 10.8264 20.9609 10.7952C20.8984 10.7639 20.8438 10.7209 20.7969 10.6663C20.75 10.6116 20.7109 10.553 20.6797 10.4905C20.6797 10.4749 20.6758 10.4592 20.668 10.4436C20.6602 10.428 20.6562 10.4124 20.6562 10.3967C20.6562 10.3655 20.6523 10.3381 20.6445 10.3147C20.6367 10.2913 20.625 10.2639 20.6094 10.2327C20.625 10.0608 20.6484 9.93579 20.6797 9.85767C20.7109 9.77954 20.75 9.71704 20.7969 9.67017L20.8438 9.62329C21.1406 9.32642 21.3633 8.99438 21.5117 8.6272C21.6602 8.26001 21.7344 7.8811 21.7344 7.49048C21.7344 7.11548 21.6602 6.74438 21.5117 6.3772C21.3633 6.01001 21.1406 5.67798 20.8438 5.3811C20.5469 5.08423 20.2148 4.86157 19.8477 4.71313C19.4805 4.5647 19.1016 4.49048 18.7109 4.49048C18.3359 4.49048 17.9648 4.5647 17.5977 4.71313C17.2305 4.86157 16.8984 5.08423 16.6016 5.3811L16.5547 5.42798C16.5078 5.45923 16.4609 5.49048 16.4141 5.52173C16.3672 5.55298 16.3203 5.57642 16.2734 5.59204C16.1953 5.60767 16.1211 5.61548 16.0508 5.61548C15.9805 5.61548 15.9062 5.59204 15.8281 5.54517C15.7812 5.52954 15.7344 5.5061 15.6875 5.47485C15.6406 5.4436 15.6016 5.40454 15.5703 5.35767C15.5234 5.31079 15.4883 5.2522 15.4648 5.18188C15.4414 5.11157 15.4297 5.03735 15.4297 4.95923V4.86548C15.4297 4.45923 15.3516 4.07251 15.1953 3.70532C15.0391 3.33813 14.8203 3.02173 14.5391 2.7561C14.2734 2.49048 13.957 2.27563 13.5898 2.11157C13.2227 1.94751 12.8359 1.86548 12.4297 1.86548C12.0234 1.86548 11.6367 1.9436 11.2695 2.09985C10.9023 2.2561 10.5859 2.47485 10.3203 2.7561C10.0391 3.02173 9.82031 3.33813 9.66406 3.70532C9.50781 4.07251 9.42969 4.45923 9.42969 4.86548V5.02954C9.42969 5.09204 9.42188 5.14673 9.40625 5.1936C9.39062 5.24048 9.375 5.28735 9.35938 5.33423C9.32812 5.39673 9.28516 5.45532 9.23047 5.51001C9.17578 5.5647 9.10937 5.60767 9.03125 5.63892C9.03125 5.63892 9.02344 5.63892 9.00781 5.63892C8.99219 5.63892 8.97656 5.63892 8.96094 5.63892C8.92969 5.65454 8.89844 5.66626 8.86719 5.67407C8.83594 5.68188 8.80469 5.68579 8.77344 5.68579C8.61719 5.67017 8.5 5.65063 8.42188 5.6272C8.34375 5.60376 8.28125 5.5686 8.23438 5.52173L8.16406 5.45142C7.88281 5.15454 7.55469 4.93579 7.17969 4.79517C6.80469 4.65454 6.42969 4.58423 6.05469 4.58423C5.66406 4.58423 5.28516 4.65454 4.91797 4.79517C4.55078 4.93579 4.21875 5.15454 3.92188 5.45142C3.64062 5.74829 3.42578 6.08032 3.27734 6.44751C3.12891 6.8147 3.05469 7.1936 3.05469 7.58423C3.05469 7.95923 3.12891 8.33423 3.27734 8.70923C3.42578 9.08423 3.64062 9.41235 3.92188 9.6936L3.96875 9.74048C4.01562 9.78735 4.05469 9.83423 4.08594 9.8811C4.11719 9.92798 4.14062 9.98267 4.15625 10.0452C4.17188 10.1077 4.17578 10.178 4.16797 10.2561C4.16016 10.3342 4.14063 10.4045 4.10938 10.467C4.10938 10.4827 4.10938 10.4944 4.10938 10.5022C4.10938 10.51 4.10156 10.5139 4.08594 10.5139C4.07031 10.5764 4.04688 10.6311 4.01562 10.678C3.98437 10.7249 3.94531 10.7639 3.89844 10.7952C3.85156 10.842 3.79297 10.8811 3.72266 10.9124C3.65234 10.9436 3.58594 10.9592 3.52344 10.9592H3.42969C3.02344 10.9592 2.63672 11.0374 2.26953 11.1936C1.90234 11.3499 1.58594 11.5608 1.32031 11.8264C1.03906 12.1077 0.820312 12.428 0.664062 12.7874C0.507813 13.1467 0.429688 13.5374 0.429688 13.9592C0.429688 14.3655 0.507813 14.7522 0.664062 15.1194C0.820312 15.4866 1.03906 15.803 1.32031 16.0686C1.58594 16.3499 1.90234 16.5686 2.26953 16.7249C2.63672 16.8811 3.02344 16.9592 3.42969 16.9592H3.59375C3.64062 16.9592 3.69141 16.9631 3.74609 16.9709C3.80078 16.9788 3.85156 16.9983 3.89844 17.0295C3.96094 17.0608 4.01953 17.1038 4.07422 17.1584C4.12891 17.2131 4.17187 17.2795 4.20312 17.3577C4.20312 17.3733 4.20703 17.3967 4.21484 17.428C4.22266 17.4592 4.23437 17.4905 4.25 17.5217C4.23437 17.6936 4.21094 17.8147 4.17969 17.885C4.14844 17.9553 4.10938 18.0139 4.0625 18.0608L4.01562 18.1311C3.71875 18.428 3.49609 18.76 3.34766 19.1272C3.19922 19.4944 3.125 19.8655 3.125 20.2405C3.125 20.6311 3.19922 21.01 3.34766 21.3772C3.49609 21.7444 3.71875 22.0764 4.01562 22.3733C4.3125 22.6702 4.64453 22.8889 5.01172 23.0295C5.37891 23.1702 5.75781 23.2405 6.14844 23.2405C6.52344 23.2405 6.89453 23.1702 7.26172 23.0295C7.62891 22.8889 7.96094 22.6702 8.25781 22.3733L8.30469 22.3264C8.35156 22.2795 8.39844 22.2444 8.44531 22.2209C8.49219 22.1975 8.53906 22.178 8.58594 22.1624C8.66406 22.1311 8.73828 22.1194 8.80859 22.1272C8.87891 22.135 8.95313 22.1545 9.03125 22.1858C9.03125 22.1858 9.03516 22.1897 9.04297 22.1975C9.05078 22.2053 9.0625 22.2092 9.07812 22.2092C9.14063 22.2249 9.19141 22.2483 9.23047 22.2795C9.26953 22.3108 9.3125 22.3499 9.35938 22.3967C9.40625 22.4592 9.44141 22.5217 9.46484 22.5842C9.48828 22.6467 9.5 22.7092 9.5 22.7717V22.8655C9.5 23.2874 9.58203 23.6819 9.74609 24.0491C9.91016 24.4163 10.125 24.7327 10.3906 24.9983C10.6562 25.2639 10.9727 25.4749 11.3398 25.6311C11.707 25.7874 12.0937 25.8655 12.5 25.8655C12.9219 25.8655 13.3164 25.7874 13.6836 25.6311C14.0508 25.4749 14.3672 25.2639 14.6328 24.9983C14.8984 24.717 15.1094 24.3967 15.2656 24.0374C15.4219 23.678 15.5 23.2874 15.5 22.8655V22.7249C15.5 22.6624 15.5078 22.6038 15.5234 22.5491C15.5391 22.4944 15.5625 22.4436 15.5938 22.3967C15.625 22.3342 15.668 22.2795 15.7227 22.2327C15.7773 22.1858 15.8359 22.1467 15.8984 22.1155C15.9297 22.0999 15.9609 22.0881 15.9922 22.0803C16.0234 22.0725 16.0547 22.0686 16.0859 22.0686C16.2422 22.0686 16.3594 22.0842 16.4375 22.1155C16.5156 22.1467 16.5781 22.1858 16.625 22.2327L16.6953 22.303C16.9766 22.5842 17.3047 22.7991 17.6797 22.9475C18.0547 23.0959 18.4297 23.1702 18.8047 23.1702C19.1953 23.1702 19.5742 23.0959 19.9414 22.9475C20.3086 22.7991 20.6406 22.5764 20.9375 22.2795C21.2188 21.9983 21.4336 21.6702 21.582 21.2952C21.7305 20.9202 21.8047 20.5452 21.8047 20.1702C21.8047 19.7795 21.7305 19.4006 21.582 19.0334C21.4336 18.6663 21.2109 18.3342 20.9141 18.0374L20.8672 17.9905C20.8359 17.9592 20.8047 17.9163 20.7734 17.8616C20.7422 17.8069 20.7188 17.7561 20.7031 17.7092C20.6875 17.6467 20.6836 17.5764 20.6914 17.4983C20.6992 17.4202 20.7187 17.3499 20.75 17.2874ZM18.8281 11.1702C18.8281 11.0764 18.8203 11.0022 18.8047 10.9475C18.7891 10.8928 18.7734 10.842 18.7578 10.7952V10.8655C18.7578 10.8967 18.7578 10.9202 18.7578 10.9358C18.7578 10.9514 18.7578 10.9749 18.7578 11.0061C18.7734 11.0374 18.7852 11.0647 18.793 11.0881C18.8008 11.1116 18.8125 11.1389 18.8281 11.1702C18.8281 11.217 18.8281 11.2444 18.8281 11.2522C18.8281 11.26 18.8281 11.2639 18.8281 11.2639C18.9531 11.5608 19.1211 11.8186 19.332 12.0374C19.543 12.2561 19.7813 12.4358 20.0469 12.5764C20.2344 12.6702 20.4297 12.7444 20.6328 12.7991C20.8359 12.8538 21.0391 12.8811 21.2422 12.8811H21.4297C21.5703 12.8811 21.6992 12.9045 21.8164 12.9514C21.9336 12.9983 22.0391 13.0686 22.1328 13.1624C22.2266 13.2561 22.3008 13.3616 22.3555 13.4788C22.4102 13.5959 22.4375 13.7249 22.4375 13.8655C22.4375 14.0061 22.4102 14.1389 22.3555 14.2639C22.3008 14.3889 22.2266 14.4905 22.1328 14.5686C22.0391 14.6624 21.9336 14.7366 21.8164 14.7913C21.6992 14.8459 21.5703 14.8733 21.4297 14.8733H21.3359C21.0234 14.8733 20.7227 14.928 20.4336 15.0374C20.1445 15.1467 19.8906 15.2952 19.6719 15.4827C19.5 15.6077 19.3516 15.7561 19.2266 15.928C19.1016 16.0999 19 16.2795 18.9219 16.467C18.7812 16.7639 18.7031 17.0647 18.6875 17.3694C18.6719 17.6741 18.7031 17.967 18.7812 18.2483C18.8438 18.467 18.9297 18.6702 19.0391 18.8577C19.1484 19.0452 19.2813 19.2249 19.4375 19.3967L19.5078 19.467C19.6016 19.5608 19.6758 19.6702 19.7305 19.7952C19.7852 19.9202 19.8125 20.0452 19.8125 20.1702C19.8125 20.2952 19.7852 20.4202 19.7305 20.5452C19.6758 20.6702 19.6016 20.7795 19.5078 20.8733C19.4141 20.967 19.3047 21.0413 19.1797 21.0959C19.0547 21.1506 18.9297 21.178 18.8047 21.178C18.6797 21.178 18.5547 21.1506 18.4297 21.0959C18.3047 21.0413 18.1953 20.967 18.1016 20.8733L18.0312 20.8264C17.7969 20.592 17.543 20.4124 17.2695 20.2874C16.9961 20.1624 16.7109 20.0842 16.4141 20.053C16.1953 20.0374 15.9766 20.0491 15.7578 20.0881C15.5391 20.1272 15.3203 20.1936 15.1016 20.2874C14.8203 20.3967 14.5703 20.5569 14.3516 20.7678C14.1328 20.9788 13.9531 21.217 13.8125 21.4827C13.7188 21.6702 13.6445 21.8655 13.5898 22.0686C13.5352 22.2717 13.5078 22.4827 13.5078 22.7014V22.8655C13.5078 23.0061 13.4805 23.1389 13.4258 23.2639C13.3711 23.3889 13.3047 23.4983 13.2266 23.592C13.1328 23.6702 13.0234 23.7366 12.8984 23.7913C12.7734 23.8459 12.6406 23.8733 12.5 23.8733C12.375 23.8733 12.25 23.8459 12.125 23.7913C12 23.7366 11.8906 23.6624 11.7969 23.5686C11.7031 23.4905 11.6328 23.3889 11.5859 23.2639C11.5391 23.1389 11.5156 23.0061 11.5156 22.8655V22.7717C11.5 22.4436 11.4375 22.1389 11.3281 21.8577C11.2188 21.5764 11.0625 21.3186 10.8594 21.0842C10.7188 20.928 10.5586 20.7874 10.3789 20.6624C10.1992 20.5374 10.0078 20.4358 9.80469 20.3577C9.52344 20.2327 9.23047 20.1624 8.92578 20.1467C8.62109 20.1311 8.32812 20.1624 8.04688 20.2405C7.84375 20.2874 7.64453 20.3655 7.44922 20.4749C7.25391 20.5842 7.07812 20.717 6.92188 20.8733L6.85156 20.9436C6.74219 21.053 6.62891 21.1311 6.51172 21.178C6.39453 21.2249 6.26562 21.2483 6.125 21.2483C6 21.2483 5.87891 21.2249 5.76172 21.178C5.64453 21.1311 5.53125 21.0608 5.42188 20.967C5.32812 20.8577 5.25781 20.7444 5.21094 20.6272C5.16406 20.51 5.14062 20.3811 5.14062 20.2405C5.14062 20.1155 5.16406 19.9905 5.21094 19.8655C5.25781 19.7405 5.32812 19.6311 5.42188 19.5374L5.49219 19.4905C5.71094 19.2561 5.88281 18.9983 6.00781 18.717C6.13281 18.4358 6.21094 18.1467 6.24219 17.8499C6.25781 17.6311 6.24609 17.4124 6.20703 17.1936C6.16797 16.9749 6.10937 16.7639 6.03125 16.5608C5.90625 16.2639 5.73828 16.0061 5.52734 15.7874C5.31641 15.5686 5.07812 15.3889 4.8125 15.2483C4.625 15.1545 4.42969 15.0842 4.22656 15.0374C4.02344 14.9905 3.82031 14.9592 3.61719 14.9436H3.42969C3.28906 14.9436 3.16016 14.9202 3.04297 14.8733C2.92578 14.8264 2.82031 14.7561 2.72656 14.6624C2.63281 14.5686 2.55859 14.4631 2.50391 14.3459C2.44922 14.2288 2.42188 14.0999 2.42188 13.9592C2.42188 13.8186 2.44922 13.6858 2.50391 13.5608C2.55859 13.4358 2.63281 13.3342 2.72656 13.2561C2.82031 13.1624 2.92578 13.0881 3.04297 13.0334C3.16016 12.9788 3.28906 12.9514 3.42969 12.9514H3.52344C3.85156 12.9514 4.16016 12.8928 4.44922 12.7756C4.73828 12.6584 4.99219 12.5061 5.21094 12.3186C5.38281 12.178 5.53125 12.0178 5.65625 11.8381C5.78125 11.6584 5.88281 11.4592 5.96094 11.2405C6.08594 10.9592 6.15625 10.6702 6.17188 10.3733C6.1875 10.0764 6.15625 9.78735 6.07812 9.5061C6.01562 9.28735 5.92969 9.08032 5.82031 8.88501C5.71094 8.6897 5.57812 8.51392 5.42188 8.35767L5.35156 8.28735C5.25781 8.1936 5.18359 8.08423 5.12891 7.95923C5.07422 7.83423 5.04688 7.70923 5.04688 7.58423C5.04688 7.45923 5.07031 7.33423 5.11719 7.20923C5.16406 7.08423 5.24219 6.97485 5.35156 6.8811C5.44531 6.77173 5.55469 6.6936 5.67969 6.64673C5.80469 6.59985 5.92969 6.57642 6.05469 6.57642C6.17969 6.57642 6.30469 6.59985 6.42969 6.64673C6.55469 6.6936 6.66406 6.76392 6.75781 6.85767L6.82812 6.92798C7.0625 7.16235 7.31641 7.34204 7.58984 7.46704C7.86328 7.59204 8.14844 7.66235 8.44531 7.67798C8.63281 7.6936 8.82031 7.6897 9.00781 7.66626C9.19531 7.64282 9.375 7.59985 9.54688 7.53735C9.59375 7.53735 9.64062 7.52954 9.6875 7.51392C9.73438 7.49829 9.78125 7.48267 9.82812 7.46704C9.8125 7.46704 9.79688 7.46704 9.78125 7.46704C9.76562 7.46704 9.75 7.46704 9.73438 7.46704C9.625 7.48267 9.54297 7.49438 9.48828 7.5022C9.43359 7.51001 9.39063 7.52954 9.35938 7.56079H9.42969C9.44531 7.56079 9.46484 7.55688 9.48828 7.54907C9.51172 7.54126 9.53125 7.53735 9.54688 7.53735C9.57813 7.53735 9.60937 7.52954 9.64062 7.51392C9.67188 7.49829 9.70312 7.48267 9.73438 7.46704C9.78125 7.46704 9.80859 7.46704 9.81641 7.46704C9.82422 7.46704 9.82812 7.46704 9.82812 7.46704C10.1094 7.34204 10.3633 7.17407 10.5898 6.96313C10.8164 6.7522 10.9922 6.52173 11.1172 6.27173C11.2266 6.08423 11.3047 5.88892 11.3516 5.68579C11.3984 5.48267 11.4219 5.27173 11.4219 5.05298V4.86548C11.4219 4.74048 11.4492 4.61548 11.5039 4.49048C11.5586 4.36548 11.6328 4.2561 11.7266 4.16235C11.8203 4.0686 11.9258 3.99829 12.043 3.95142C12.1602 3.90454 12.2891 3.8811 12.4297 3.8811C12.5703 3.8811 12.6992 3.90454 12.8164 3.95142C12.9336 3.99829 13.0391 4.0686 13.1328 4.16235C13.2266 4.2561 13.3008 4.36548 13.3555 4.49048C13.4102 4.61548 13.4375 4.74048 13.4375 4.86548V4.95923C13.4375 5.28735 13.4883 5.59204 13.5898 5.87329C13.6914 6.15454 13.8359 6.41235 14.0234 6.64673C14.1641 6.80298 14.3164 6.9436 14.4805 7.0686C14.6445 7.1936 14.8281 7.30298 15.0312 7.39673C15.3125 7.52173 15.6055 7.59204 15.9102 7.60767C16.2148 7.62329 16.5156 7.59204 16.8125 7.51392C17.0156 7.45142 17.2148 7.36548 17.4102 7.2561C17.6055 7.14673 17.7813 7.01392 17.9375 6.85767L18.0078 6.78735C18.1172 6.6936 18.2305 6.62329 18.3477 6.57642C18.4648 6.52954 18.5859 6.5061 18.7109 6.5061C18.8516 6.5061 18.9805 6.52954 19.0977 6.57642C19.2148 6.62329 19.3281 6.6936 19.4375 6.78735C19.5312 6.8811 19.6016 6.99048 19.6484 7.11548C19.6953 7.24048 19.7188 7.36548 19.7188 7.49048C19.7188 7.6311 19.6953 7.76001 19.6484 7.8772C19.6016 7.99438 19.5312 8.09985 19.4375 8.1936L19.3672 8.26392C19.1484 8.49829 18.9766 8.7561 18.8516 9.03735C18.7266 9.3186 18.6484 9.60767 18.6172 9.90454C18.6016 10.092 18.6055 10.2756 18.6289 10.4553C18.6523 10.635 18.6953 10.8186 18.7578 11.0061C18.7578 11.053 18.7656 11.0959 18.7812 11.135C18.7969 11.1741 18.8125 11.217 18.8281 11.2639C18.8281 11.2483 18.8281 11.2327 18.8281 11.217C18.8281 11.2014 18.8281 11.1858 18.8281 11.1702Z" fill="#575864"/>
</g>
<defs>
<clipPath id="clip0_23_1494">
<rect width="24" height="25" fill="white" transform="matrix(1 0 0 -1 0.429688 25.8733)"/>
</clipPath>
</defs>
</svg>
