<svg width="53" height="53" viewBox="0 0 53 53" fill="none" xmlns="http://www.w3.org/2000/svg">
<path d="M21.539 2.75271C24.633 0.966381 28.445 0.966381 31.539 2.75271L44.9217 10.4792C48.0157 12.2656 49.9217 15.5668 49.9217 19.1395V34.5925C49.9217 38.1651 48.0157 41.4664 44.9217 43.2527L31.539 50.9792C28.445 52.7656 24.633 52.7656 21.539 50.9792L8.15625 43.2527C5.06224 41.4664 3.15625 38.1651 3.15625 34.5925V19.1395C3.15625 15.5668 5.06224 12.2656 8.15625 10.4792L21.539 2.75271Z" fill="#22C55E"/>
<g clip-path="url(#clip0_23_76)">
<path d="M32.8535 20.6721H20.0059L21.3809 18.8245H31.4785L32.8535 20.6721ZM35.4102 21.0159L32.6602 17.3635C32.5742 17.2489 32.4668 17.1594 32.3379 17.095C32.209 17.0305 32.0729 16.9983 31.9297 16.9983H20.9297C20.7865 16.9983 20.6504 17.0305 20.5215 17.095C20.3926 17.1594 20.2852 17.2489 20.1992 17.3635L17.4492 21.0159C17.4349 21.0445 17.417 21.0732 17.3955 21.1018C17.374 21.1305 17.3561 21.1591 17.3418 21.1877C17.3132 21.2594 17.2917 21.3274 17.2773 21.3918C17.263 21.4563 17.2559 21.5172 17.2559 21.5745V34.4221C17.2559 34.7945 17.3275 35.149 17.4707 35.4856C17.6139 35.8222 17.8145 36.1122 18.0723 36.3557C18.3158 36.5992 18.6058 36.7961 18.9424 36.9465C19.279 37.0969 19.6335 37.1721 20.0059 37.1721H32.8535C33.2259 37.1721 33.5804 37.1005 33.917 36.9573C34.2536 36.814 34.5436 36.6135 34.7871 36.3557C35.0306 36.1122 35.2275 35.8222 35.3779 35.4856C35.5283 35.149 35.6035 34.7945 35.6035 34.4221V21.5745C35.6035 21.4742 35.5856 21.3811 35.5498 21.2952C35.514 21.2092 35.4746 21.1233 35.4316 21.0374C35.4173 21.0374 35.4102 21.0374 35.4102 21.0374V21.0159ZM19.1035 22.4983H33.7559V34.4221C33.7559 34.5367 33.7344 34.6513 33.6914 34.7659C33.6484 34.8805 33.584 34.9807 33.498 35.0667C33.4121 35.1526 33.3154 35.217 33.208 35.26C33.1006 35.303 32.9824 35.3245 32.8535 35.3245H20.0059C19.8913 35.3245 19.7767 35.303 19.6621 35.26C19.5475 35.217 19.4473 35.1526 19.3613 35.0667C19.2754 34.9807 19.2109 34.8805 19.168 34.7659C19.125 34.6513 19.1035 34.5367 19.1035 34.4221V22.4983ZM29.1797 25.2483C29.1797 25.635 29.1081 25.9931 28.9648 26.3225C28.8216 26.6519 28.6211 26.9384 28.3633 27.1819C28.1198 27.4397 27.8333 27.6402 27.5039 27.7834C27.1745 27.9267 26.8164 27.9983 26.4297 27.9983C26.043 27.9983 25.6849 27.9267 25.3555 27.7834C25.026 27.6402 24.7396 27.4397 24.4961 27.1819C24.2383 26.9384 24.0378 26.6519 23.8945 26.3225C23.7513 25.9931 23.6797 25.635 23.6797 25.2483C23.6797 24.9905 23.5902 24.7721 23.4111 24.593C23.2321 24.414 23.0137 24.3245 22.7559 24.3245C22.5124 24.3245 22.3011 24.414 22.1221 24.593C21.943 24.7721 21.8535 24.9905 21.8535 25.2483C21.8535 25.8785 21.9717 26.4729 22.208 27.0315C22.4443 27.5901 22.7702 28.0771 23.1855 28.4924C23.6009 28.9078 24.0879 29.2336 24.6465 29.47C25.2051 29.7063 25.7995 29.8245 26.4297 29.8245C27.0599 29.8245 27.6543 29.7063 28.2129 29.47C28.7715 29.2336 29.2585 28.9078 29.6738 28.4924C30.0892 28.0771 30.415 27.5901 30.6514 27.0315C30.8877 26.4729 31.0059 25.8785 31.0059 25.2483C31.0059 24.9905 30.9163 24.7721 30.7373 24.593C30.5583 24.414 30.347 24.3245 30.1035 24.3245C29.8457 24.3245 29.6273 24.414 29.4482 24.593C29.2692 24.7721 29.1797 24.9905 29.1797 25.2483Z" fill="white"/>
</g>
<defs>
<clipPath id="clip0_23_76">
<rect width="22" height="22" fill="white" transform="matrix(1 0 0 -1 15.4297 37.6233)"/>
</clipPath>
</defs>
</svg>
