<svg width="53" height="53" viewBox="0 0 53 53" fill="none" xmlns="http://www.w3.org/2000/svg">
<path d="M21.539 2.75271C24.633 0.966381 28.445 0.966381 31.539 2.75271L44.9217 10.4792C48.0157 12.2656 49.9217 15.5668 49.9217 19.1395V34.5925C49.9217 38.1651 48.0157 41.4664 44.9217 43.2527L31.539 50.9792C28.445 52.7656 24.633 52.7656 21.539 50.9792L8.15625 43.2527C5.06224 41.4664 3.15625 38.1651 3.15625 34.5925V19.1395C3.15625 15.5668 5.06224 12.2656 8.15625 10.4792L21.539 2.75271Z" fill="#FF5200"/>
<g clip-path="url(#clip0_23_147)">
<path d="M25.5059 26.1721H24.1309C23.8158 26.1721 23.5186 26.1112 23.2393 25.9895C22.96 25.8678 22.7201 25.6995 22.5195 25.4846C22.3047 25.2841 22.14 25.0442 22.0254 24.7649C21.9108 24.4856 21.8535 24.1884 21.8535 23.8733C21.8535 23.5582 21.9108 23.261 22.0254 22.9817C22.14 22.7024 22.3047 22.4625 22.5195 22.262C22.7201 22.0471 22.96 21.8788 23.2393 21.7571C23.5186 21.6353 23.8158 21.5745 24.1309 21.5745H25.5059V26.1721ZM27.3535 27.9983H28.7285C29.0436 27.9983 29.3408 28.0592 29.6201 28.1809C29.8994 28.3027 30.1393 28.4638 30.3398 28.6643C30.5547 28.8792 30.7194 29.1262 30.834 29.4055C30.9486 29.6848 31.0059 29.982 31.0059 30.2971C31.0059 30.6122 30.9486 30.9094 30.834 31.1887C30.7194 31.468 30.5547 31.7079 30.3398 31.9084C30.1393 32.1233 29.8994 32.288 29.6201 32.4026C29.3408 32.5172 29.0436 32.5745 28.7285 32.5745H27.3535V27.9983ZM31.0059 19.7483H27.3535V16.9983C27.3535 16.7405 27.264 16.5221 27.085 16.343C26.9059 16.164 26.6875 16.0745 26.4297 16.0745C26.1719 16.0745 25.9535 16.164 25.7744 16.343C25.5954 16.5221 25.5059 16.7405 25.5059 16.9983V19.7483H24.1309C23.5723 19.7483 23.0423 19.8557 22.541 20.0706C22.0397 20.2854 21.6029 20.579 21.2305 20.9514C20.8581 21.3238 20.5609 21.7607 20.3389 22.262C20.1169 22.7633 20.0059 23.3004 20.0059 23.8733C20.0059 24.4462 20.1169 24.9833 20.3389 25.4846C20.5609 25.9859 20.8581 26.4228 21.2305 26.7952C21.6029 27.1676 22.0397 27.4612 22.541 27.676C23.0423 27.8909 23.5723 27.9983 24.1309 27.9983H25.5059V32.5745H20.9297C20.6719 32.5745 20.4535 32.664 20.2744 32.843C20.0954 33.0221 20.0059 33.2405 20.0059 33.4983C20.0059 33.7561 20.0954 33.9745 20.2744 34.1536C20.4535 34.3326 20.6719 34.4221 20.9297 34.4221H25.5059V37.1721C25.5059 37.4156 25.5954 37.6269 25.7744 37.8059C25.9535 37.9849 26.1719 38.0745 26.4297 38.0745C26.6875 38.0745 26.9059 37.9849 27.085 37.8059C27.264 37.6269 27.3535 37.4156 27.3535 37.1721V34.4221H28.7285C29.2871 34.4221 29.8171 34.3111 30.3184 34.0891C30.8197 33.8671 31.2565 33.5699 31.6289 33.1975C32.0013 32.8251 32.2985 32.3883 32.5205 31.887C32.7425 31.3857 32.8535 30.8557 32.8535 30.2971C32.8535 29.7242 32.7425 29.1871 32.5205 28.6858C32.2985 28.1845 32.0013 27.7476 31.6289 27.3752C31.2565 27.0028 30.8197 26.7092 30.3184 26.4944C29.8171 26.2795 29.2871 26.1721 28.7285 26.1721H27.3535V21.5745H31.0059C31.2637 21.5745 31.4821 21.4849 31.6611 21.3059C31.8402 21.1269 31.9297 20.9156 31.9297 20.6721C31.9297 20.4143 31.8402 20.1959 31.6611 20.0168C31.4821 19.8378 31.2637 19.7483 31.0059 19.7483Z" fill="white"/>
</g>
<defs>
<clipPath id="clip0_23_147">
<rect width="22" height="22" fill="white" transform="matrix(1 0 0 -1 15.4297 37.6233)"/>
</clipPath>
</defs>
</svg>
