<svg width="53" height="53" viewBox="0 0 53 53" fill="none" xmlns="http://www.w3.org/2000/svg">
<path d="M21.539 2.75271C24.633 0.966381 28.445 0.966381 31.539 2.75271L44.9217 10.4792C48.0157 12.2656 49.9217 15.5668 49.9217 19.1395V34.5925C49.9217 38.1651 48.0157 41.4664 44.9217 43.2527L31.539 50.9792C28.445 52.7656 24.633 52.7656 21.539 50.9792L8.15625 43.2527C5.06224 41.4664 3.15625 38.1651 3.15625 34.5925V19.1395C3.15625 15.5668 5.06224 12.2656 8.15625 10.4792L21.539 2.75271Z" fill="#2377FC"/>
<g clip-path="url(#clip0_23_268)">
<path d="M31.9297 35.3245V33.4983C31.9297 32.8681 31.8079 32.2737 31.5645 31.7151C31.321 31.1565 30.9987 30.6695 30.5977 30.2542C30.1823 29.8388 29.6953 29.5129 29.1367 29.2766C28.5781 29.0403 27.9837 28.9221 27.3535 28.9221H20.0059C19.3757 28.9221 18.7812 29.0403 18.2227 29.2766C17.6641 29.5129 17.1771 29.8388 16.7617 30.2542C16.3607 30.6695 16.0384 31.1565 15.7949 31.7151C15.5514 32.2737 15.4297 32.8681 15.4297 33.4983V35.3245C15.4297 35.5823 15.5192 35.8007 15.6982 35.9797C15.8773 36.1588 16.0957 36.2483 16.3535 36.2483C16.597 36.2483 16.8083 36.1588 16.9873 35.9797C17.1663 35.8007 17.2559 35.5823 17.2559 35.3245V33.4983C17.2559 33.1116 17.3275 32.7535 17.4707 32.4241C17.6139 32.0946 17.8145 31.8082 18.0723 31.5647C18.3158 31.3069 18.6058 31.1064 18.9424 30.9631C19.279 30.8199 19.6335 30.7483 20.0059 30.7483H27.3535C27.7259 30.7483 28.0804 30.8199 28.417 30.9631C28.7536 31.1064 29.0436 31.3069 29.2871 31.5647C29.5449 31.8082 29.7454 32.0946 29.8887 32.4241C30.0319 32.7535 30.1035 33.1116 30.1035 33.4983V35.3245C30.1035 35.5823 30.193 35.8007 30.3721 35.9797C30.5511 36.1588 30.7624 36.2483 31.0059 36.2483C31.2637 36.2483 31.4821 36.1588 31.6611 35.9797C31.8402 35.8007 31.9297 35.5823 31.9297 35.3245ZM28.2559 22.4983C28.2559 21.8681 28.1377 21.2737 27.9014 20.7151C27.665 20.1565 27.3392 19.6695 26.9238 19.2542C26.5085 18.8388 26.0215 18.5129 25.4629 18.2766C24.9043 18.0403 24.3099 17.9221 23.6797 17.9221C23.0495 17.9221 22.4551 18.0403 21.8965 18.2766C21.3379 18.5129 20.8509 18.8388 20.4355 19.2542C20.0202 19.6695 19.6943 20.1565 19.458 20.7151C19.2217 21.2737 19.1035 21.8681 19.1035 22.4983C19.1035 23.1285 19.2217 23.7229 19.458 24.2815C19.6943 24.8401 20.0202 25.3271 20.4355 25.7424C20.8509 26.1578 21.3379 26.4836 21.8965 26.72C22.4551 26.9563 23.0495 27.0745 23.6797 27.0745C24.3099 27.0745 24.9043 26.9563 25.4629 26.72C26.0215 26.4836 26.5085 26.1578 26.9238 25.7424C27.3392 25.3271 27.665 24.8401 27.9014 24.2815C28.1377 23.7229 28.2559 23.1285 28.2559 22.4983ZM26.4297 22.4983C26.4297 22.885 26.3581 23.2431 26.2148 23.5725C26.0716 23.9019 25.8711 24.1884 25.6133 24.4319C25.3698 24.6897 25.0833 24.8902 24.7539 25.0334C24.4245 25.1767 24.0664 25.2483 23.6797 25.2483C23.293 25.2483 22.9349 25.1767 22.6055 25.0334C22.276 24.8902 21.9896 24.6897 21.7461 24.4319C21.4883 24.1884 21.2878 23.9019 21.1445 23.5725C21.0013 23.2431 20.9297 22.885 20.9297 22.4983C20.9297 22.1116 21.0013 21.7535 21.1445 21.4241C21.2878 21.0946 21.4883 20.8082 21.7461 20.5647C21.9896 20.3069 22.276 20.1064 22.6055 19.9631C22.9349 19.8199 23.293 19.7483 23.6797 19.7483C24.0664 19.7483 24.4245 19.8199 24.7539 19.9631C25.0833 20.1064 25.3698 20.3069 25.6133 20.5647C25.8711 20.8082 26.0716 21.0946 26.2148 21.4241C26.3581 21.7535 26.4297 22.1116 26.4297 22.4983ZM37.4297 35.3245V33.4983C37.4297 32.9254 37.3294 32.3847 37.1289 31.8762C36.9284 31.3678 36.6562 30.913 36.3125 30.512C36.0117 30.1682 35.6644 29.871 35.2705 29.6204C34.8766 29.3697 34.4505 29.1871 33.9922 29.0725C33.7487 29.0009 33.5195 29.0295 33.3047 29.1584C33.0898 29.2874 32.9466 29.4736 32.875 29.717C32.8177 29.9605 32.8499 30.1933 32.9717 30.4153C33.0934 30.6373 33.276 30.7769 33.5195 30.8342C33.806 30.9058 34.0674 31.0168 34.3037 31.1672C34.54 31.3176 34.7513 31.5002 34.9375 31.7151C35.138 31.9586 35.2992 32.2307 35.4209 32.5315C35.5426 32.8323 35.6035 33.1545 35.6035 33.4983V35.3245C35.6035 35.5823 35.693 35.8007 35.8721 35.9797C36.0511 36.1588 36.2624 36.2483 36.5059 36.2483C36.7637 36.2483 36.9821 36.1588 37.1611 35.9797C37.3402 35.8007 37.4297 35.5823 37.4297 35.3245ZM29.8672 19.8342C30.2396 19.9345 30.569 20.0956 30.8555 20.3176C31.1419 20.5396 31.3711 20.801 31.543 21.1018C31.7292 21.4026 31.8509 21.732 31.9082 22.0901C31.9655 22.4482 31.944 22.8134 31.8438 23.1858C31.7721 23.5009 31.6468 23.7874 31.4678 24.0452C31.2887 24.303 31.0775 24.5178 30.834 24.6897C30.6908 24.8043 30.5368 24.901 30.3721 24.9797C30.2074 25.0585 30.0391 25.1194 29.8672 25.1624C29.6237 25.234 29.4375 25.3772 29.3086 25.592C29.1797 25.8069 29.1439 26.0361 29.2012 26.2795C29.2728 26.523 29.416 26.7092 29.6309 26.8381C29.8457 26.967 30.082 27.0028 30.3398 26.9456C30.6263 26.8596 30.9056 26.7522 31.1777 26.6233C31.4499 26.4944 31.7005 26.344 31.9297 26.1721C32.3451 25.8713 32.6995 25.5061 32.9932 25.0764C33.2868 24.6467 33.498 24.1669 33.627 23.637C33.7845 23.0211 33.8167 22.4159 33.7236 21.8215C33.6305 21.2271 33.4336 20.6721 33.1328 20.1565C32.832 19.6552 32.4417 19.2183 31.9619 18.8459C31.4821 18.4736 30.9342 18.2086 30.3184 18.051C30.0749 17.9937 29.8457 18.0295 29.6309 18.1584C29.416 18.2874 29.2728 18.4736 29.2012 18.717C29.1439 18.9605 29.1797 19.1933 29.3086 19.4153C29.4375 19.6373 29.6237 19.7769 29.8672 19.8342Z" fill="white"/>
</g>
<defs>
<clipPath id="clip0_23_268">
<rect width="22" height="22" fill="white" transform="matrix(1 0 0 -1 15.4297 37.6233)"/>
</clipPath>
</defs>
</svg>
